<svg width="16" height="16" viewBox="0 0 16 16" fill="none" xmlns="http://www.w3.org/2000/svg">
<path d="M9.49954 5C9.89511 5 10.2818 4.8827 10.6107 4.66294C10.9396 4.44318 11.1959 4.13082 11.3473 3.76537C11.4987 3.39992 11.5383 2.99778 11.4611 2.60982C11.3839 2.22186 11.1935 1.86549 10.9138 1.58579C10.6341 1.30608 10.2777 1.1156 9.88972 1.03843C9.50176 0.96126 9.09963 1.00087 8.73418 1.15224C8.36873 1.30362 8.05637 1.55996 7.83661 1.88886C7.61684 2.21776 7.49954 2.60444 7.49954 3C7.49954 3.53043 7.71026 4.03914 8.08533 4.41422C8.4604 4.78929 8.96911 5 9.49954 5ZM9.49954 2C9.69733 2 9.89067 2.05865 10.0551 2.16853C10.2196 2.27841 10.3477 2.43459 10.4234 2.61732C10.4991 2.80004 10.5189 3.00111 10.4803 3.19509C10.4417 3.38907 10.3465 3.56726 10.2067 3.70711C10.0668 3.84696 9.88862 3.9422 9.69463 3.98079C9.50065 4.01937 9.29959 3.99957 9.11686 3.92388C8.93413 3.84819 8.77796 3.72002 8.66807 3.55557C8.55819 3.39112 8.49954 3.19778 8.49954 3C8.49954 2.73478 8.6049 2.48043 8.79244 2.29289C8.97997 2.10536 9.23433 2 9.49954 2ZM13.4995 9C13.4995 9.13261 13.4469 9.25979 13.3531 9.35356C13.2593 9.44732 13.1322 9.5 12.9995 9.5C10.7927 9.5 9.69017 8.38688 8.80454 7.4925C8.63329 7.31938 8.46954 7.155 8.30454 7.0025L7.46517 8.9325L9.79017 10.5931C9.85493 10.6394 9.90772 10.7004 9.94413 10.7712C9.98055 10.842 9.99955 10.9204 9.99954 11V14.5C9.99954 14.6326 9.94687 14.7598 9.8531 14.8536C9.75933 14.9473 9.63215 15 9.49954 15C9.36694 15 9.23976 14.9473 9.14599 14.8536C9.05222 14.7598 8.99954 14.6326 8.99954 14.5V11.2575L7.05767 9.87L4.95829 14.6994C4.91944 14.7887 4.85532 14.8648 4.77382 14.9182C4.69232 14.9716 4.59699 15 4.49954 15C4.43089 15.0002 4.36296 14.9859 4.30017 14.9581C4.17862 14.9053 4.08303 14.8064 4.03439 14.6831C3.98575 14.5598 3.98806 14.4222 4.04079 14.3006L7.42079 6.5275C6.83892 6.42438 6.11329 6.6025 5.25204 7.06375C4.56517 7.44263 3.92409 7.89917 3.34142 8.42438C3.24416 8.51149 3.11669 8.55711 2.98624 8.55148C2.85579 8.54584 2.73272 8.48941 2.64334 8.39423C2.55395 8.29905 2.50535 8.17268 2.50791 8.04213C2.51047 7.91159 2.564 7.78723 2.65704 7.69563C2.81329 7.54875 6.51267 4.11875 8.82704 6.12813C9.06642 6.33563 9.29454 6.56563 9.51454 6.78875C10.3864 7.66875 11.2095 8.5 12.9995 8.5C13.1322 8.5 13.2593 8.55268 13.3531 8.64645C13.4469 8.74022 13.4995 8.86739 13.4995 9Z" fill="#3B3B3B"/>
</svg>
